<?xml version="1.0" standalone="no"?>
<!DOCTYPE svg PUBLIC "-//W3C//DTD SVG 20010904//EN"
 "http://www.w3.org/TR/2001/REC-SVG-20010904/DTD/svg10.dtd">
<svg version="1.0" xmlns="http://www.w3.org/2000/svg"
 width="516.000000pt" height="516.000000pt" viewBox="0 0 516.000000 516.000000"
 preserveAspectRatio="xMidYMid meet">
<metadata>
Created by potrace 1.11, written by Peter Selinger 2001-2013
</metadata>
<g transform="translate(0.000000,516.000000) scale(0.100000,-0.100000)"
fill="#000000" stroke="none">
<path d="M2520 5148 c-112 -11 -203 -48 -409 -167 -102 -59 -278 -161 -391
-226 -113 -65 -272 -157 -355 -205 -82 -47 -258 -149 -390 -225 -132 -76 -249
-143 -260 -149 -277 -150 -412 -317 -442 -547 -13 -101 -8 -2095 5 -2151 39
-158 131 -300 252 -389 29 -21 205 -126 335 -199 17 -9 75 -43 130 -75 55 -32
114 -66 130 -75 450 -260 618 -357 655 -378 25 -14 124 -71 220 -127 385 -224
399 -229 595 -229 145 0 214 23 404 132 80 46 166 96 191 110 25 13 72 41 105
60 33 19 159 92 280 162 121 70 263 152 315 182 52 30 187 108 300 173 390
223 458 267 515 324 98 100 143 179 176 309 21 86 22 93 22 1098 0 555 -4
1037 -8 1070 -16 133 -91 283 -189 379 -28 28 -131 105 -140 105 -3 0 -23 11
-44 24 -20 13 -143 84 -272 159 -129 74 -333 192 -453 261 -120 69 -237 137
-260 150 -23 13 -114 65 -202 116 -343 200 -471 271 -523 290 -82 31 -205 47
-292 38z m-414 -1747 c27 -12 66 -39 87 -59 39 -38 53 -60 267 -430 107 -187
124 -211 135 -195 12 18 214 366 291 503 54 96 102 145 176 180 79 37 177 37
258 -2 98 -46 98 -47 345 -478 65 -113 128 -222 141 -242 13 -21 24 -39 24
-42 0 -2 61 -109 136 -237 84 -146 141 -254 150 -288 37 -141 -36 -290 -174
-358 l-57 -28 -1300 0 -1300 0 -56 26 c-107 50 -179 156 -185 270 -3 78 13
127 82 245 51 88 88 152 153 266 10 18 42 74 71 123 29 50 61 106 72 125 114
202 297 512 316 538 29 38 98 81 157 99 56 17 152 10 211 -16z"/>
<path d="M1914 3266 c-40 -18 -67 -47 -106 -116 -46 -81 -44 -78 -323 -560
-142 -245 -267 -465 -277 -489 -15 -33 -18 -54 -13 -88 8 -57 62 -119 114
-132 34 -9 981 -13 981 -5 0 3 -9 33 -21 67 -16 48 -20 75 -14 119 8 76 15 92
134 297 56 96 101 180 101 187 0 19 -368 654 -397 685 -41 45 -121 60 -179 35z"/>
<path d="M3125 3265 c-41 -17 -74 -56 -125 -145 -72 -126 -76 -133 -108 -190
-16 -30 -73 -129 -126 -220 l-96 -164 24 -41 c13 -22 33 -56 44 -75 126 -220
163 -289 167 -315 14 -72 11 -118 -9 -179 l-22 -64 480 0 c294 1 492 5 511 11
67 22 116 98 109 169 -3 26 -25 77 -62 142 -32 55 -120 207 -194 336 -75 129
-188 325 -251 435 -135 234 -157 268 -191 290 -33 22 -113 27 -151 10z"/>
<path d="M2542 2323 c-126 -218 -135 -236 -137 -277 -1 -22 3 -52 8 -66 16
-36 58 -80 92 -95 45 -19 149 -11 184 15 60 42 90 122 69 183 -11 31 -167 307
-174 307 -2 0 -21 -30 -42 -67z"/>
</g>
</svg>
