<?xml version="1.0" encoding="utf-8"?>
<!-- Generator: Adobe Illustrator 16.0.3, SVG Export Plug-In . SVG Version: 6.00 Build 0)  -->
<!DOCTYPE svg PUBLIC "-//W3C//DTD SVG 1.1//EN" "http://www.w3.org/Graphics/SVG/1.1/DTD/svg11.dtd">
<svg version="1.1" id="Layer_1" xmlns="http://www.w3.org/2000/svg" xmlns:xlink="http://www.w3.org/1999/xlink" x="0px" y="0px"
	 width="154px" height="37px" viewBox="0 0 154 37" enable-background="new 0 0 154 37" xml:space="preserve">
<filter  width="108.1%" id="filter-1" x="-4.1%" y="-58.9%" filterUnits="objectBoundingBox" height="239.3%">
	<feOffset  dx="0" dy="9" result="shadowOffsetOuter1" in="SourceAlpha"></feOffset>
	<feGaussianBlur  stdDeviation="18" result="shadowBlurOuter1" in="shadowOffsetOuter1"></feGaussianBlur>
	
		<feColorMatrix  type="matrix" values="0 0 0 0 0   0 0 0 0 0   0 0 0 0 0  0 0 0 0.105780118 0" result="shadowMatrixOuter1" in="shadowBlurOuter1">
		</feColorMatrix>
	<feMerge>
		<feMergeNode  in="shadowMatrixOuter1"></feMergeNode>
		<feMergeNode  in="SourceGraphic"></feMergeNode>
	</feMerge>
</filter>
<title>A49B4BE2-2854-4035-B6E3-D8571FD7E087</title>
<desc>Created with sketchtool.</desc>
<g id="Home">
	<g id="Solutions" transform="translate(-100.000000, 0.000000)">
		<g id="Group-2" filter="url(#filter-1)">
		</g>
	</g>
</g>
<g>
	<path fill="#FFFFFF" d="M16.503,19.766l-1.09,1.887c-0.207,0.354-0.207,0.773,0,1.137c0.207,0.354,0.573,0.563,0.981,0.563h0.222
		c0.405,0,0.772-0.215,0.979-0.563c0.209-0.354,0.209-0.771,0-1.137L16.503,19.766z"/>
	<path fill="#FFFFFF" d="M21.665,14.218c-0.207-0.354-0.572-0.566-0.979-0.566c-0.408,0-0.772,0.214-0.979,0.566l-2.593,4.492
		l1.396,2.418c0.395,0.686,0.395,1.504,0,2.189c-0.01,0.014-0.016,0.023-0.021,0.033h6.488c0.407,0,0.772-0.217,0.979-0.564
		c0.207-0.354,0.207-0.773,0-1.135L21.665,14.218z"/>
	<path fill="#FFFFFF" d="M30.247,7.943L18.77,1.317c-1.399-0.809-3.138-0.809-4.54,0L2.753,7.943
		C1.35,8.751,0.48,10.251,0.48,11.875v13.246c0,1.625,0.864,3.123,2.273,3.932L14.23,35.68c1.402,0.813,3.137,0.813,4.54,0
		l11.479-6.627c1.399-0.809,2.272-2.307,2.272-3.932V11.875C32.521,10.259,31.648,8.759,30.247,7.943z M26.876,23.318
		c-0.396,0.684-1.106,1.092-1.896,1.092h-8.368h-0.221H8.025c-0.795,0-1.5-0.408-1.894-1.092c-0.393-0.688-0.393-1.506,0-2.189
		l4.291-7.437c0.394-0.684,1.105-1.092,1.893-1.092c0.795,0,1.5,0.408,1.895,1.092l2.287,3.959l2.287-3.959
		c0.396-0.684,1.104-1.092,1.894-1.092c0.795,0,1.498,0.408,1.893,1.092l4.293,7.437C27.27,21.813,27.27,22.627,26.876,23.318z"/>
	<path fill="#FFFFFF" d="M14.501,21.129l1.396-2.418l-2.591-4.492c-0.208-0.354-0.574-0.566-0.98-0.566
		c-0.408,0-0.774,0.214-0.981,0.566l-4.291,7.436c-0.207,0.354-0.207,0.771,0,1.135c0.207,0.354,0.573,0.564,0.981,0.564h6.486
		c-0.006-0.016-0.014-0.02-0.02-0.031C14.1,22.627,14.1,21.813,14.501,21.129z"/>
</g>
<g>
	<path fill="#FFFFFF" d="M52.533,12.535c-0.906,0-1.767,0.199-2.559,0.595c-0.681,0.337-1.236,0.846-1.659,1.52
		c-0.377-0.608-0.885-1.098-1.534-1.461c-0.768-0.43-1.664-0.654-2.67-0.654c-0.779,0-1.526,0.152-2.221,0.456
		c-0.501,0.219-0.944,0.529-1.315,0.933v-1.164h-2.22v11.667h2.241v-6.551c0-0.977,0.296-1.731,0.911-2.319
		c0.621-0.588,1.362-0.872,2.281-0.872c0.951,0,1.697,0.277,2.213,0.819c0.516,0.549,0.78,1.328,0.78,2.327v6.596h2.229v-6.551
		c0-0.977,0.297-1.731,0.911-2.319c0.622-0.588,1.362-0.872,2.281-0.872c0.951,0,1.698,0.277,2.22,0.819
		c0.523,0.549,0.787,1.328,0.787,2.327v6.596h2.228v-7.177c0-1.409-0.463-2.559-1.369-3.424
		C55.184,12.971,53.987,12.535,52.533,12.535z"/>
	<path fill="#FFFFFF" d="M65.852,12.535c-1.666,0-3.066,0.575-4.15,1.712c-1.084,1.13-1.641,2.597-1.641,4.355
		c0,1.785,0.557,3.251,1.653,4.371c1.098,1.115,2.526,1.684,4.244,1.684c1.896,0,3.503-0.607,4.759-1.816l0.152-0.145l-1.23-1.572
		l-0.186,0.17c-0.978,0.893-2.114,1.35-3.39,1.35c-0.991,0-1.846-0.307-2.532-0.895c-0.628-0.541-1.018-1.314-1.164-2.293h8.918
		l0.025-0.205c0.027-0.203,0.04-0.436,0.04-0.695c-0.007-1.744-0.535-3.198-1.56-4.314C68.76,13.11,67.432,12.535,65.852,12.535z
		 M62.4,17.552c0.165-0.853,0.529-1.561,1.085-2.095c0.614-0.595,1.374-0.879,2.334-0.879c0.898,0,1.624,0.285,2.22,0.866
		c0.542,0.529,0.879,1.236,1.019,2.108H62.4L62.4,17.552z"/>
	<path fill="#FFFFFF" d="M93.235,14.042c-0.985-0.998-2.281-1.507-3.859-1.507c-1.647,0-3.042,0.582-4.151,1.725
		c-1.11,1.144-1.672,2.598-1.672,4.323c0,1.726,0.562,3.185,1.672,4.33c1.109,1.15,2.513,1.732,4.151,1.732
		c1.578,0,2.874-0.502,3.859-1.502v1.277h2.229V12.753h-2.229V14.042z M92.284,21.412c-0.708,0.754-1.594,1.117-2.69,1.117
		c-1.117,0-2.002-0.371-2.717-1.131c-0.7-0.754-1.058-1.699-1.058-2.808c0-1.111,0.357-2.05,1.058-2.803
		c0.707-0.759,1.594-1.123,2.724-1.123c1.104,0,1.981,0.364,2.69,1.117c0.7,0.748,1.058,1.691,1.058,2.815
		C93.341,19.719,92.985,20.67,92.284,21.412z"/>
	<path fill="#FFFFFF" d="M104.182,14.657c1.084,0,2.057,0.416,2.902,1.236l0.172,0.165l1.447-1.52l-0.141-0.159
		c-0.516-0.588-1.156-1.052-1.903-1.369c-0.746-0.317-1.558-0.476-2.418-0.476c-1.758,0-3.221,0.582-4.343,1.725
		c-1.117,1.144-1.686,2.598-1.686,4.322c0,1.734,0.569,3.193,1.686,4.337c1.122,1.143,2.585,1.725,4.343,1.725
		c0.853,0,1.665-0.16,2.405-0.475c0.748-0.318,1.389-0.775,1.916-1.369l0.141-0.158l-1.402-1.543l-0.17,0.168
		c-0.853,0.826-1.84,1.248-2.937,1.248c-1.07,0-1.937-0.363-2.65-1.109c-0.706-0.742-1.063-1.693-1.063-2.83
		c0-1.131,0.356-2.076,1.063-2.816C102.245,15.02,103.112,14.657,104.182,14.657z"/>
	<rect x="111.075" y="10.109" fill="#FFFFFF" width="2.241" height="14.316"/>
	<rect x="116.906" y="13.771" fill="#FFFFFF" width="2.239" height="10.655"/>
	<path fill="#FFFFFF" d="M118.029,9.303c-0.416,0-0.773,0.146-1.052,0.43c-0.276,0.284-0.422,0.641-0.422,1.058
		c0,0.417,0.146,0.773,0.422,1.052c0.278,0.277,0.636,0.422,1.052,0.422c0.417,0,0.772-0.139,1.059-0.422
		c0.284-0.285,0.429-0.635,0.429-1.052c0-0.416-0.145-0.773-0.437-1.058C118.789,9.441,118.433,9.303,118.029,9.303z"/>
	<path fill="#FFFFFF" d="M128.492,12.535c-0.779,0-1.526,0.152-2.221,0.456c-0.502,0.219-0.946,0.529-1.315,0.933v-1.164h-2.222
		v11.667h2.241v-6.551c0-0.977,0.297-1.731,0.912-2.319c0.621-0.588,1.362-0.872,2.281-0.872c0.951,0,1.699,0.277,2.213,0.819
		c0.517,0.549,0.782,1.328,0.782,2.327v6.596h2.226v-7.177c0-1.409-0.463-2.559-1.368-3.424
		C131.123,12.971,129.935,12.535,128.492,12.535z"/>
	<path fill="#FFFFFF" d="M137.979,9.303c-0.416,0-0.774,0.146-1.052,0.43c-0.278,0.284-0.424,0.641-0.424,1.058
		c0,0.417,0.146,0.773,0.424,1.052c0.277,0.277,0.636,0.422,1.052,0.422s0.773-0.139,1.058-0.422
		c0.283-0.285,0.428-0.635,0.428-1.052c0-0.416-0.145-0.773-0.436-1.058C138.737,9.441,138.379,9.303,137.979,9.303z"/>
	<rect x="136.854" y="13.771" fill="#FFFFFF" width="2.241" height="10.655"/>
	<path fill="#FFFFFF" d="M150.748,21.281c-0.853,0.824-1.839,1.248-2.937,1.248c-1.07,0-1.935-0.363-2.649-1.111
		c-0.706-0.74-1.064-1.693-1.064-2.828c0-1.131,0.358-2.076,1.064-2.817c0.715-0.746,1.579-1.11,2.649-1.11
		c1.086,0,2.057,0.416,2.904,1.236l0.171,0.165l1.447-1.52l-0.139-0.159c-0.515-0.589-1.156-1.051-1.904-1.368
		c-0.745-0.318-1.56-0.477-2.419-0.477c-1.757,0-3.219,0.582-4.343,1.727c-1.116,1.144-1.685,2.597-1.685,4.321
		c0,1.732,0.568,3.193,1.685,4.337c1.124,1.143,2.585,1.725,4.343,1.725c0.854,0,1.666-0.158,2.406-0.477
		c0.746-0.318,1.388-0.773,1.917-1.367l0.139-0.16l-1.399-1.541L150.748,21.281z"/>
	<path fill="#FFFFFF" d="M79.309,22.529c-0.615,0-1.09-0.178-1.453-0.555c-0.357-0.371-0.537-0.953-0.537-1.734v-5.418h3.782v-2.063
		h-3.782v-2.657h-2.227v2.657h-2.444v2.063h2.444v5.452c0,1.438,0.357,2.539,1.066,3.266c0.705,0.732,1.724,1.104,3.012,1.104
		c1.125,0,2.155-0.297,3.074-0.885l-1.111-1.725C80.558,22.365,79.943,22.529,79.309,22.529z"/>
</g>
</svg>
