<svg xmlns="http://www.w3.org/2000/svg" xmlns:xlink="http://www.w3.org/1999/xlink" version="1.1" width="33.81690121512872" height="36.18309878487129" enable-background="new 0 0 154 37" xml:space="preserve"><rect id="backgroundrect" width="100%" height="100%" x="0" y="0" fill="none" stroke="none" class="" style=""/>
<filter width="108.1%" id="filter-1" x="-4.1%" y="-58.9%" filterUnits="objectBoundingBox" height="239.3%">
	<feOffset dx="0" dy="9" result="shadowOffsetOuter1" in="SourceAlpha"/>
	<feGaussianBlur stdDeviation="18" result="shadowBlurOuter1" in="shadowOffsetOuter1"/>
	
		<feColorMatrix type="matrix" values="0 0 0 0 0   0 0 0 0 0   0 0 0 0 0  0 0 0 0.105780118 0" result="shadowMatrixOuter1" in="shadowBlurOuter1">
		</feColorMatrix>
	<feMerge>
		<feMergeNode in="shadowMatrixOuter1"/>
		<feMergeNode in="SourceGraphic"/>
	</feMerge>
</filter>
<title>A49B4BE2-2854-4035-B6E3-D8571FD7E087</title>
<desc>Created with sketchtool.</desc>



<g class="currentLayer" style=""><title>Layer 1</title><g id="Home" class="">
	<g id="Solutions">
		<g id="Group-2" filter="url(#filter-1)">
		</g>
	</g>
</g><g id="svg_1" class="">
	<path fill="#FFFFFF" d="M16.503,19.766l-1.09,1.887c-0.207,0.354-0.207,0.773,0,1.137c0.207,0.354,0.573,0.563,0.981,0.563h0.222   c0.405,0,0.772-0.215,0.979-0.563c0.209-0.354,0.209-0.771,0-1.137L16.503,19.766z" id="svg_2"/>
	<path fill="#FFFFFF" d="M21.665,14.218c-0.207-0.354-0.572-0.566-0.979-0.566c-0.408,0-0.772,0.214-0.979,0.566l-2.593,4.492   l1.396,2.418c0.395,0.686,0.395,1.504,0,2.189c-0.01,0.014-0.016,0.023-0.021,0.033h6.488c0.407,0,0.772-0.217,0.979-0.564   c0.207-0.354,0.207-0.773,0-1.135L21.665,14.218z" id="svg_3"/>
	<path fill="#FFFFFF" d="M30.247,7.943L18.77,1.317c-1.399-0.809-3.138-0.809-4.54,0L2.753,7.943   C1.35,8.751,0.48,10.251,0.48,11.875v13.246c0,1.625,0.864,3.123,2.273,3.932L14.23,35.68c1.402,0.813,3.137,0.813,4.54,0   l11.479-6.627c1.399-0.809,2.272-2.307,2.272-3.932V11.875C32.521,10.259,31.648,8.759,30.247,7.943z M26.876,23.318   c-0.396,0.684-1.106,1.092-1.896,1.092h-8.368h-0.221H8.025c-0.795,0-1.5-0.408-1.894-1.092c-0.393-0.688-0.393-1.506,0-2.189   l4.291-7.437c0.394-0.684,1.105-1.092,1.893-1.092c0.795,0,1.5,0.408,1.895,1.092l2.287,3.959l2.287-3.959   c0.396-0.684,1.104-1.092,1.894-1.092c0.795,0,1.498,0.408,1.893,1.092l4.293,7.437C27.27,21.813,27.27,22.627,26.876,23.318z" id="svg_4"/>
	<path fill="#FFFFFF" d="M14.501,21.129l1.396-2.418l-2.591-4.492c-0.208-0.354-0.574-0.566-0.98-0.566   c-0.408,0-0.774,0.214-0.981,0.566l-4.291,7.436c-0.207,0.354-0.207,0.771,0,1.135c0.207,0.354,0.573,0.564,0.981,0.564h6.486   c-0.006-0.016-0.014-0.02-0.02-0.031C14.1,22.627,14.1,21.813,14.501,21.129z" id="svg_5"/>
</g></g></svg>